<svg xmlns="http://www.w3.org/2000/svg" xmlns:xlink="http://www.w3.org/1999/xlink" viewBox="0 0 370.97 370.97"><defs><style>.cls-1{fill:url(#linear-gradient);}.cls-2{fill:#8a8990;}.cls-3{fill:#7c7b87;}.cls-4{fill:#706f7a;}.cls-5{fill:#71707f;}.cls-6{fill:#959599;}.cls-7{fill:none;stroke:#4f4f59;stroke-linecap:round;stroke-miterlimit:10;stroke-width:6px;}</style><linearGradient id="linear-gradient" x1="316.64" y1="54.33" x2="54.33" y2="316.64" gradientUnits="userSpaceOnUse"><stop offset="0.02" stop-color="#ffc878"/><stop offset="0.52" stop-color="#ffc97a"/><stop offset="0.7" stop-color="#ffcc81"/><stop offset="0.83" stop-color="#ffd08c"/><stop offset="0.93" stop-color="#ffd79d"/><stop offset="1" stop-color="#ffdeae"/></linearGradient></defs><g id="Layer_2" data-name="Layer 2"><g id="Layer_1-2" data-name="Layer 1"><circle class="cls-1" cx="185.48" cy="185.48" r="185.48"/><path class="cls-2" d="M331.89,126.45,282.21,90.13a39.09,39.09,0,0,0-31.69-6.49L197.05,95.78H170.52L117.05,83.64a39.09,39.09,0,0,0-31.69,6.49L35.67,126.45a14.7,14.7,0,0,0-5.82,14.86c5.12,24.79,28,89.62,128,94.6,10.18.51,41.73.51,51.91,0,99.94-5,122.86-69.81,128-94.6A14.69,14.69,0,0,0,331.89,126.45Z"/><path class="cls-3" d="M31.16,146.89c1-5.95,2.57-11.08,4.51-12.5l29-9.76A241.77,241.77,0,0,0,91.5,114a39.22,39.22,0,0,1,25.55-2.82l53.47,12.15h26.53l53.47-12.15A39.23,39.23,0,0,1,276.07,114a241,241,0,0,0,26.87,10.66l28.95,9.76c1.95,1.42,3.47,6.55,4.52,12.5.53-2,1-3.9,1.31-5.58a14.72,14.72,0,0,0-5.83-14.86L282.21,90.13a39.09,39.09,0,0,0-31.69-6.49L197.05,95.78H170.52L117.05,83.64a39.09,39.09,0,0,0-31.69,6.49L35.67,126.45a14.7,14.7,0,0,0-5.82,14.86C30.19,143,30.63,144.86,31.16,146.89Z"/><path class="cls-4" d="M337.84,136.06a14.74,14.74,0,0,0-1.72-4.88,14.22,14.22,0,0,0-1.16-1.74,14.86,14.86,0,0,0-3.07-3L282.21,90.13a38.62,38.62,0,0,0-11.1-5.63,39.14,39.14,0,0,0-4-1q-1-.21-2-.36a39.18,39.18,0,0,0-6.22-.44c-.69,0-1.39,0-2.09.08s-1.39.1-2.08.18a39.32,39.32,0,0,0-4.16.72l-9.9,2.25-43.57,9.89H170.52L117.05,83.64a39.09,39.09,0,0,0-31.69,6.49L35.67,126.45a16,16,0,0,0-2.39,2.17c-.23.27-.46.54-.67.82a14.78,14.78,0,0,0-2.06,3.62c-.12.33-.24.65-.34,1a14.12,14.12,0,0,0-.48,2,14.33,14.33,0,0,0-.06,4.19c0,.35.1.7.18,1.06h0c.35,1.68.78,3.55,1.31,5.58h0c1-5.95,2.57-11.08,4.52-12.5l28.95-9.76A241,241,0,0,0,91.5,114a39.22,39.22,0,0,1,25.55-2.82l53.47,12.15h26.53l53.47-12.15A39.23,39.23,0,0,1,276.07,114a241,241,0,0,0,26.87,10.66l28.95,9.76c1.95,1.42,3.48,6.55,4.52,12.5h0c.26-1,.5-2,.72-2.9h0c.11-.44.2-.86.29-1.28l0-.1c.09-.44.19-.87.27-1.28s.13-.71.18-1.06a14.93,14.93,0,0,0,.12-2.11A14.48,14.48,0,0,0,337.84,136.06Z"/><path class="cls-3" d="M221.17,290.39v6.28a9.09,9.09,0,1,1-18.18,0V277.22c0-9.67,2.56-29.27,4.5-42.7a29.05,29.05,0,0,1,5.56-13.34c2-2.69,3.95-5.09,5.09-8.33a23,23,0,0,0,1.3-7c.07-2.3-.77-4.15-1-6.41a23.36,23.36,0,0,1,2.66-13.79l8.62-15.85a33.44,33.44,0,0,0,3.1-23.66,33,33,0,0,1-.32-13.86l1-5.45a20.36,20.36,0,0,0-6.69-19.36l-9.68-8.17a51.9,51.9,0,0,0-67.52,0l-9.68,8.17a20.36,20.36,0,0,0-6.69,19.36l1,5.45a32.88,32.88,0,0,1-.32,13.86,33.44,33.44,0,0,0,3.1,23.66l8.62,15.85a23.23,23.23,0,0,1,2.13,16.73,19.49,19.49,0,0,0-.31,10.11,13.19,13.19,0,0,0,3.29,5.37,33.54,33.54,0,0,1,4.32,5.24,29.17,29.17,0,0,1,4.26,11.46c1.93,13.41,4.49,33,4.49,42.63v22.22a42.66,42.66,0,0,0,85.31,0v-9Z"/><path class="cls-5" d="M145.69,185.67A23.34,23.34,0,0,1,148.51,197s10.59-35.29,8.37-42.18S140,139,134.77,136a32.77,32.77,0,0,1-.8,10.2h0a33.44,33.44,0,0,0,3.1,23.66Z"/><path class="cls-5" d="M218.24,197a23.24,23.24,0,0,1,2.83-11.29l8.61-15.85a33.44,33.44,0,0,0,3.1-23.66h0A33.07,33.07,0,0,1,232,136c-5.27,3-19.86,11.82-22.11,18.82S218.24,197,218.24,197Z"/><path class="cls-6" d="M123.68,216.52c7.17,1.14,12.51-6.78,8.58-12.89a4.42,4.42,0,0,0-1.41-1.51l-.08,0,1.92-7.7a17.56,17.56,0,0,0-1.61-12.65l-6-11.12a24,24,0,0,1-2.23-17h0a23.77,23.77,0,0,0,.23-10l-.75-3.93a14.86,14.86,0,0,1,.52-7.59.84.84,0,0,0-.61-1.08l-11.57-2.63a28.29,28.29,0,0,0-17.87,1.79c-6.51,2.94-13.14,5.64-19.91,7.93l-20.65,7a.87.87,0,0,0-.27.14c-1.35,1.15-2.4,4.75-3.13,8.9C53.59,172.35,69.77,208,123.68,216.52Z"/><path class="cls-6" d="M243.89,216.52c-7.17,1.14-12.51-6.78-8.59-12.89a4.53,4.53,0,0,1,1.42-1.51l.07,0-1.92-7.7a17.57,17.57,0,0,1,1.62-12.65l6-11.12a24,24,0,0,0,2.23-17h0a23.77,23.77,0,0,1-.23-10l.75-3.93a14.86,14.86,0,0,0-.52-7.59.83.83,0,0,1,.61-1.08l11.57-2.63a28.29,28.29,0,0,1,17.87,1.79c6.51,2.94,13.14,5.64,19.91,7.93l20.65,7a.87.87,0,0,1,.27.14c1.34,1.15,2.4,4.75,3.13,8.9C314,172.35,297.8,208,243.89,216.52Z"/><path class="cls-4" d="M183.38,86.84c-.78,0-1.56,0-2.33,0l-.22,0c-.71,0-1.42.08-2.15.15q-2.31.21-4.59.63a52.71,52.71,0,0,1,24.47,11.62l9.68,8.18a20.39,20.39,0,0,1,6.7,19.36l-1.05,5.45a33.21,33.21,0,0,0,.32,13.86,33.44,33.44,0,0,1-3.1,23.66l-8.61,15.85a23.23,23.23,0,0,0-2.13,16.73l.22.89a20.62,20.62,0,0,1-1.9,14.74l-.49-.23a35.59,35.59,0,0,0-30,0l-1.62.75a4.52,4.52,0,0,0,1.9,8.62,4.56,4.56,0,0,0,1.9-.42L172,226a26.58,26.58,0,0,1,22.09-.15,35.27,35.27,0,0,0-3,9.48c-.2,1.23-.39,2.44-.58,3.63a28.28,28.28,0,0,0-19.21,1.69l-1.25.57a4.52,4.52,0,0,0,1.91,8.62,4.41,4.41,0,0,0,1.9-.42l1.24-.58a19.32,19.32,0,0,1,14.17-.83c-.62,5.17-1,10-1.26,14.4A21.7,21.7,0,0,0,174,263.9l-.9.42a4.52,4.52,0,1,0,3.81,8.19l.9-.41a12.66,12.66,0,0,1,9.9-.34c.33,38.08,16.57,44.15,28.89,39.72,11.21-4,11.87-14.07,11.91-21.08h-7.36v6.27a9.09,9.09,0,0,1-7.6,9l-.33.05-.48.05-.24,0h-.72l-.45,0-.48-.06-.44-.06-.47-.1-.42-.11-.45-.15c-.14-.05-.27-.09-.4-.15l-.44-.19-.38-.18-.41-.23c-.12-.07-.24-.14-.35-.22l-.39-.27-.33-.25-.36-.31a4,4,0,0,1-.3-.28c-.12-.11-.22-.23-.33-.34s-.19-.2-.28-.31-.2-.25-.29-.38a3.81,3.81,0,0,1-.24-.32,4.65,4.65,0,0,1-.26-.41c-.07-.12-.15-.23-.21-.35s-.15-.29-.22-.44l-.18-.36-.18-.48c0-.12-.09-.24-.13-.37a4.58,4.58,0,0,1-.14-.53,3.58,3.58,0,0,1-.09-.35c0-.2-.07-.41-.1-.61s0-.2-.05-.3c0-.31,0-.63,0-.95V276.36c0-.09,0-.18,0-.27s0-.42,0-.63,0-.22,0-.33,0-.43,0-.66,0-.2,0-.31c0-.31,0-.63,0-1s.05-1,.08-1.5c0-.18,0-.37,0-.55s0-.51.05-.77a2.45,2.45,0,0,1,0-.27c.08-1.14.17-2.32.28-3.54l0-.28c.5-5.64,1.25-12.08,2-18.34.08-.56.15-1.12.22-1.68l0-.15c.08-.55.15-1.09.22-1.64v-.07c.15-1.14.31-2.28.46-3.39l0-.17c.07-.47.13-.93.2-1.39,0-.13,0-.26.05-.39.06-.39.11-.79.17-1.18,0-.13,0-.27.05-.4.06-.39.11-.78.17-1.17,0-.12,0-.23.05-.34.07-.49.14-1,.2-1.46a29.69,29.69,0,0,1,.66-3.25,28.42,28.42,0,0,1,1-3.12,29.09,29.09,0,0,1,1.64-3.48c1.77-3.22,4.49-5.63,6.39-8.77,3-5,2.24-10,1.36-15.44q-.12-.68-.18-1.35c-.07-.66-.11-1.32-.12-2v-.07A23.23,23.23,0,0,1,219,191c0-.13.06-.26.1-.38a22.73,22.73,0,0,1,2-4.9l8.62-15.85c.24-.45.48-.9.7-1.36.44-.92.84-1.85,1.2-2.8A32.85,32.85,0,0,0,233,161c.17-.81.32-1.63.43-2.46a33.19,33.19,0,0,0,.32-4.78v0a33.88,33.88,0,0,0-.91-7.55,32.88,32.88,0,0,1-.32-13.86l.13-.66.91-4.79a20.92,20.92,0,0,0,.37-4.08q0-.69-.06-1.35a19.57,19.57,0,0,0-.37-2.66,20,20,0,0,0-6.63-11.27l-9.68-8.17c-1.2-1-2.43-2-3.69-2.86s-2.57-1.73-3.89-2.5a52.32,52.32,0,0,0-10.44-4.65A51.33,51.33,0,0,0,183.38,86.84Z"/><path class="cls-3" d="M250.12,293.53H220.93a2.9,2.9,0,0,1-2.91-2.9v-5.2a2.9,2.9,0,0,1,2.91-2.9h29.19a2.9,2.9,0,0,1,2.91,2.9v5.2A2.9,2.9,0,0,1,250.12,293.53Z"/><path class="cls-7" d="M137.75,158.7a7.63,7.63,0,0,1,14.75.78"/><path class="cls-7" d="M229,160.23a7.64,7.64,0,0,0-14.76.77"/></g></g></svg>